<svg xmlns="http://www.w3.org/2000/svg" viewBox="0 0 1024 1024">
  <defs>
    <linearGradient id="odoBg" x1="0" y1="0" x2="0" y2="1">
      <stop offset="0%" stop-color="#141416"/>
      <stop offset="100%" stop-color="#222226"/>
    </linearGradient>
    <filter id="odoShadow">
      <feDropShadow dx="0" dy="8" stdDeviation="18" flood-color="#000" flood-opacity="0.30"/>
    </filter>
  </defs>

  <rect width="1024" height="1024" fill="#F2F2F7"/>
  <radialGradient id="vignette" cx="0.5" cy="0.5" r="0.7">
    <stop offset="60%" stop-color="white" stop-opacity="0"/>
    <stop offset="100%" stop-color="#E5E5EA" stop-opacity="0.5"/>
  </radialGradient>
  <rect width="1024" height="1024" fill="url(#vignette)"/>

  <ellipse cx="510" cy="630" rx="380" ry="14" fill="rgba(0,0,0,0.08)"/>
  <line x1="80" y1="630" x2="944" y2="630" stroke="rgba(0,0,0,0.06)" stroke-width="2" stroke-linecap="round"/>

  <!--
    UNIFIED MODERN CAR BODY — single path, lower & sleeker
  -->
  <path d="
    M 125 548
    C 110 548, 108 530, 115 512
    L 128 472
    C 132 462, 142 456, 155 454
    L 175 454
    L 290 454
    L 340 320
    L 640 320
    L 700 454
    L 875 454
    C 895 454, 908 462, 910 475
    L 912 510
    C 914 534, 904 548, 885 548
    L 733 548
    A 66 66 0 0 1 667 548
    L 353 548
    A 66 66 0 0 1 287 548
    L 125 548
    Z
  " fill="#2DC873"/>

  <!-- Body character crease -->
  <line x1="170" y1="500" x2="870" y2="500" stroke="rgba(0,0,0,0.04)" stroke-width="2.5"/>

  <!-- Glass -->
  <path d="M 300 450 L 348 330 L 630 330 L 680 450 Z" fill="#141418"/>

  <!-- Pillars -->
  <polygon points="680,450 700,454 640,320 630,330" fill="#2DC873"/>
  <polygon points="490,330 500,330 502,454 490,454" fill="#2DC873"/>
  <polygon points="300,450 290,454 340,320 348,330" fill="#2DC873"/>

  <!-- Beltline -->
  <line x1="173" y1="454" x2="877" y2="454" stroke="rgba(255,255,255,0.18)" stroke-width="2"/>

  <!-- Door cuts -->
  <line x1="410" y1="380" x2="405" y2="545" stroke="rgba(0,0,0,0.04)" stroke-width="1.8"/>
  <line x1="570" y1="380" x2="575" y2="545" stroke="rgba(0,0,0,0.04)" stroke-width="1.8"/>

  <!-- Flush door handles -->
  <rect x="395" y="420" width="14" height="4" rx="2" fill="rgba(0,0,0,0.08)"/>
  <rect x="585" y="420" width="14" height="4" rx="2" fill="rgba(0,0,0,0.08)"/>

  <!-- Headlight -->
  <path d="M 878 490 L 910 490 C 912 490, 912 496, 912 502 L 912 515 L 878 515 Z" fill="#E8E8E8"/>
  <line x1="880" y1="498" x2="908" y2="498" stroke="#FFFFFF" stroke-width="3" stroke-linecap="round"/>

  <!-- Taillight -->
  <line x1="115" y1="498" x2="150" y2="498" stroke="#CC2222" stroke-width="6" stroke-linecap="round"/>
  <line x1="115" y1="508" x2="150" y2="508" stroke="#991818" stroke-width="4" stroke-linecap="round"/>

  <!-- === WHEELS — clean === -->
  <circle cx="695" cy="575" r="54" fill="#111114"/>
  <circle cx="695" cy="575" r="36" fill="none" stroke="#2D2D30" stroke-width="4"/>
  <circle cx="695" cy="575" r="12" fill="#2D2D30"/>

  <circle cx="325" cy="575" r="54" fill="#111114"/>
  <circle cx="325" cy="575" r="36" fill="none" stroke="#2D2D30" stroke-width="4"/>
  <circle cx="325" cy="575" r="12" fill="#2D2D30"/>

  <!--
    ODOMETER
  -->
  <g filter="url(#odoShadow)">
    <rect x="237" y="710" width="550" height="135" rx="20" fill="url(#odoBg)"/>
    <rect x="237" y="710" width="550" height="135" rx="20" fill="none" stroke="rgba(255,255,255,0.05)" stroke-width="2"/>

    <rect x="257" y="722" width="510" height="86" rx="10" fill="#08080A"/>
    <rect x="257" y="722" width="510" height="86" rx="10" fill="none" stroke="rgba(255,255,255,0.03)" stroke-width="1.5"/>

    <rect x="257" y="717" width="510" height="3" rx="1.5" fill="#2DC873" opacity="0.45"/>

    <!-- 9 digits centered -->
    <g font-family="Menlo, SF Mono, Courier, monospace" font-size="56" font-weight="700" fill="#2DC873" text-anchor="middle">
      <text x="296" y="777">0</text>
      <text x="350" y="777">0</text>
      <text x="404" y="777">0</text>
      <text x="458" y="777">0</text>
      <text x="512" y="777">4</text>
      <text x="566" y="777">2</text>
      <text x="620" y="777">1</text>
      <text x="674" y="777">3</text>
      <text x="728" y="777">7</text>
    </g>

    <g stroke="rgba(45,200,115,0.06)" stroke-width="1">
      <line x1="323" y1="726" x2="323" y2="804"/>
      <line x1="377" y1="726" x2="377" y2="804"/>
      <line x1="431" y1="726" x2="431" y2="804"/>
      <line x1="485" y1="726" x2="485" y2="804"/>
      <line x1="539" y1="726" x2="539" y2="804"/>
      <line x1="593" y1="726" x2="593" y2="804"/>
      <line x1="647" y1="726" x2="647" y2="804"/>
      <line x1="701" y1="726" x2="701" y2="804"/>
    </g>
  </g>
</svg>
